<?xml version="1.0" encoding="utf-8"?>
<!-- Generator: Adobe Illustrator 22.0.0, SVG Export Plug-In . SVG Version: 6.00 Build 0)  -->
<svg version="1.1" id="Capa_1" xmlns="http://www.w3.org/2000/svg" xmlns:xlink="http://www.w3.org/1999/xlink" x="0px" y="0px"
	 viewBox="0 0 426.7 426.7" style="enable-background:new 0 0 426.7 426.7;" xml:space="preserve">
<style type="text/css">
	.st0{fill:#898989;}
	.st1{fill:#C22F00;}
	.st2{fill:none;}
</style>
<g>
	<g>
		<g>
			<path class="st0" d="M213.3,192c-11.7,0-21.3,9.6-21.3,21.3s9.6,21.3,21.3,21.3s21.3-9.6,21.3-21.3S225.1,192,213.3,192z"/>
			<path class="st0" d="M213.3,0C95.5,0,0,95.5,0,213.3s95.5,213.3,213.3,213.3s213.3-95.5,213.3-213.3S331.2,0,213.3,0z
				 M213.3,309.3c-53,0-96-43-96-96s43-96,96-96s96,43,96,96S266.3,309.3,213.3,309.3z"/>
		</g>
	</g>
</g>
</svg>
