<?xml version="1.0" encoding="utf-8"?>
<!-- Generator: Adobe Illustrator 22.0.0, SVG Export Plug-In . SVG Version: 6.00 Build 0)  -->
<svg version="1.1" id="Capa_1" xmlns="http://www.w3.org/2000/svg" xmlns:xlink="http://www.w3.org/1999/xlink" x="0px" y="0px"
	 viewBox="0 0 426.7 426.7" style="enable-background:new 0 0 426.7 426.7;" xml:space="preserve">
<style type="text/css">
	.st0{fill:#898989;}
	.st1{fill:#C22F00;}
	.st2{fill:none;}
</style>
<g>
	<path class="st2" d="M117.3,213.3c0,53,43,96,96,96v-74.7c-11.7,0-21.3-9.6-21.3-21.3c0-11.7,9.6-21.3,21.3-21.3v-74.7
		C160.3,117.3,117.3,160.3,117.3,213.3z"/>
	<path class="st1" d="M192,213.3c0,11.7,9.6,21.3,21.3,21.3V192C201.6,192,192,201.6,192,213.3z"/>
	<path class="st1" d="M117.3,213.3c0-53,43-96,96-96V0C95.5,0,0,95.5,0,213.3s95.5,213.3,213.3,213.3V309.3
		C160.3,309.3,117.3,266.3,117.3,213.3z"/>
	<path class="st0" d="M234.7,213.3c0-11.7-9.6-21.3-21.3-21.3v42.7C225.1,234.7,234.7,225.1,234.7,213.3z"/>
	<path class="st0" d="M426.7,213.3C426.7,95.5,331.2,0,213.3,0v117.3c53,0,96,43,96,96s-43,96-96,96v117.3
		C331.2,426.7,426.7,331.2,426.7,213.3z"/>
</g>
</svg>
